<svg width="3980" height="2410" viewBox="0 0 3980 2410" fill="none" xmlns="http://www.w3.org/2000/svg">
<path fill-rule="evenodd" clip-rule="evenodd" d="M2140 800C2140 523.858 2363.86 300 2640 300V0C2198.17 0 1840 358.172 1840 800H1540C1540 1076.14 1316.14 1300 1040 1300V1600C1481.83 1600 1840 1241.83 1840 800H2140ZM2140 800H2440C2440 1076.14 2663.86 1300 2940 1300V1600C2498.17 1600 2140 1241.83 2140 800Z" fill="url(#paint0_linear_335_126)"/>
<path d="M172.2 2236H272.4L435.6 1792H334.2L251.4 2016.4C241.8 2042.8 233.4 2067.4 222 2110C212.4 2071.6 204 2044 193.8 2016.4L109.8 1792H6L172.2 2236ZM640.055 1936V2092C640.055 2141.2 623.855 2161.6 584.255 2161.6C546.455 2161.6 529.655 2140 529.655 2090.8V1936H437.255V2124.4C437.255 2198.2 479.255 2243.8 547.655 2243.8C583.655 2243.8 620.855 2227 639.455 2202.4L645.455 2236H732.455V1936H640.055ZM894.192 2236V1783.6H801.792V2236H894.192ZM947.311 2084.8C947.311 2180.8 1008.51 2243.8 1103.31 2243.8C1187.31 2243.8 1248.51 2192.2 1254.51 2116.6H1161.51C1155.51 2146 1135.71 2161 1103.31 2161C1063.71 2161 1040.31 2132.8 1040.31 2084.8C1040.31 2038.6 1065.51 2009.2 1104.51 2009.2C1136.31 2009.2 1154.91 2023.6 1161.51 2053.6H1254.51C1248.51 1975 1189.71 1926.4 1100.91 1926.4C1010.91 1926.4 947.311 1992.4 947.311 2084.8ZM1395.71 2243.8C1440.71 2243.8 1480.31 2224 1489.91 2196.4L1495.91 2236H1577.51V2060.8C1577.51 1975 1528.31 1926.4 1441.31 1926.4C1355.51 1926.4 1299.71 1970.8 1299.71 2038.6H1376.51C1376.51 2011.6 1397.51 1996.6 1436.51 1996.6C1469.51 1996.6 1487.51 2012.2 1487.51 2041.6V2046.4L1403.51 2053C1331.51 2058.4 1292.51 2092.6 1292.51 2147.8C1292.51 2206.6 1332.11 2243.8 1395.71 2243.8ZM1428.11 2175.4C1399.91 2175.4 1386.71 2165.2 1386.71 2143.6C1386.71 2124.4 1401.11 2115.4 1441.31 2111.8L1488.11 2107.6V2123.8C1488.11 2158 1463.51 2175.4 1428.11 2175.4ZM1736.18 2236V2071.6C1736.18 2034.4 1759.58 2010.4 1796.18 2010.4C1827.98 2010.4 1848.98 2035 1848.98 2072.8V2236H1941.38V2050.6C1941.38 1972 1899.98 1926.4 1828.58 1926.4C1789.58 1926.4 1755.38 1941.4 1736.78 1967.2L1730.78 1936H1643.78V2236H1736.18ZM2053.25 1889.2C2082.05 1889.2 2105.45 1865.8 2105.45 1836.4C2105.45 1807 2082.05 1784.2 2053.25 1784.2C2023.85 1784.2 2000.45 1807 2000.45 1836.4C2000.45 1865.8 2023.85 1889.2 2053.25 1889.2ZM2007.65 2236H2100.05V1936H2007.65V2236ZM2153.17 2084.8C2153.17 2180.8 2214.37 2243.8 2309.17 2243.8C2393.17 2243.8 2454.37 2192.2 2460.37 2116.6H2367.37C2361.37 2146 2341.57 2161 2309.17 2161C2269.57 2161 2246.17 2132.8 2246.17 2084.8C2246.17 2038.6 2271.37 2009.2 2310.37 2009.2C2342.17 2009.2 2360.77 2023.6 2367.37 2053.6H2460.37C2454.37 1975 2395.57 1926.4 2306.77 1926.4C2216.77 1926.4 2153.17 1992.4 2153.17 2084.8ZM2778.36 1792H2681.16V2236H2953.56V2146H2778.36V1792ZM3093.76 2243.8C3138.76 2243.8 3178.36 2224 3187.96 2196.4L3193.96 2236H3275.56V2060.8C3275.56 1975 3226.36 1926.4 3139.36 1926.4C3053.56 1926.4 2997.76 1970.8 2997.76 2038.6H3074.56C3074.56 2011.6 3095.56 1996.6 3134.56 1996.6C3167.56 1996.6 3185.56 2012.2 3185.56 2041.6V2046.4L3101.56 2053C3029.56 2058.4 2990.56 2092.6 2990.56 2147.8C2990.56 2206.6 3030.16 2243.8 3093.76 2243.8ZM3126.16 2175.4C3097.96 2175.4 3084.76 2165.2 3084.76 2143.6C3084.76 2124.4 3099.16 2115.4 3139.36 2111.8L3186.16 2107.6V2123.8C3186.16 2158 3161.56 2175.4 3126.16 2175.4ZM3428.83 2236L3433.63 2197.6C3449.83 2225.2 3485.83 2243.8 3527.83 2243.8C3613.03 2243.8 3672.43 2182 3672.43 2089C3672.43 1991.2 3619.03 1925.8 3535.03 1925.8C3491.83 1925.8 3452.23 1943.8 3434.23 1970.8V1783.6H3341.83V2236H3428.83ZM3434.83 2084.2C3434.83 2039.2 3464.83 2009.2 3508.03 2009.2C3551.83 2009.2 3579.43 2039.8 3579.43 2084.2C3579.43 2128.6 3551.83 2159.2 3508.03 2159.2C3464.83 2159.2 3434.83 2129.2 3434.83 2084.2ZM3704.02 2141.2C3704.02 2201.8 3753.82 2243.8 3833.02 2243.8C3911.02 2243.8 3965.62 2204.8 3965.62 2140.6C3965.62 2092.6 3938.62 2069.8 3889.42 2059L3833.62 2047C3812.62 2042.2 3801.22 2034.4 3801.22 2020.6C3801.22 2004.4 3814.42 1993.6 3835.42 1993.6C3857.62 1993.6 3870.22 2007.4 3870.22 2027.8H3957.82C3957.82 1967.2 3909.22 1926.4 3839.62 1926.4C3767.62 1926.4 3714.22 1962.4 3714.22 2024.8C3714.22 2077.6 3741.22 2101.6 3796.42 2113.6L3851.62 2125.6C3873.82 2130.4 3878.62 2140 3878.62 2149C3878.62 2164.6 3865.42 2174.8 3836.62 2174.8C3808.42 2174.8 3792.82 2162.2 3791.62 2141.2H3704.02Z" fill="white"/>
<defs>
<linearGradient id="paint0_linear_335_126" x1="1990" y1="0" x2="1990" y2="1600" gradientUnits="userSpaceOnUse">
<stop stop-color="#FCB930"/>
<stop offset="1" stop-color="#D82909"/>
</linearGradient>
</defs>
</svg>
