<svg width="5131" height="810" viewBox="0 0 5131 810" fill="none" xmlns="http://www.w3.org/2000/svg">
<path fill-rule="evenodd" clip-rule="evenodd" d="M550.066 405C550.066 266.929 661.995 155 800.066 155V5C579.153 5 400.066 184.086 400.066 405H250.066C250.066 543.071 138.138 655 0.0664062 655V805C220.98 805 400.066 625.914 400.066 405H550.066ZM550.066 405H700.066C700.066 543.071 811.995 655 950.066 655V805C729.153 805 550.066 625.914 550.066 405Z" fill="url(#paint0_linear_335_36)"/>
<path d="M1322.27 636H1422.47L1585.67 192H1484.27L1401.47 416.4C1391.87 442.8 1383.47 467.4 1372.07 510C1362.47 471.6 1354.07 444 1343.87 416.4L1259.87 192H1156.07L1322.27 636ZM1790.12 336V492C1790.12 541.2 1773.92 561.6 1734.32 561.6C1696.52 561.6 1679.72 540 1679.72 490.8V336H1587.32V524.4C1587.32 598.2 1629.32 643.8 1697.72 643.8C1733.72 643.8 1770.92 627 1789.52 602.4L1795.52 636H1882.52V336H1790.12ZM2044.26 636V183.6H1951.86V636H2044.26ZM2097.38 484.8C2097.38 580.8 2158.58 643.8 2253.38 643.8C2337.38 643.8 2398.58 592.2 2404.58 516.6H2311.58C2305.58 546 2285.78 561 2253.38 561C2213.78 561 2190.38 532.8 2190.38 484.8C2190.38 438.6 2215.58 409.2 2254.58 409.2C2286.38 409.2 2304.98 423.6 2311.58 453.6H2404.58C2398.58 375 2339.78 326.4 2250.98 326.4C2160.98 326.4 2097.38 392.4 2097.38 484.8ZM2545.78 643.8C2590.78 643.8 2630.38 624 2639.98 596.4L2645.98 636H2727.58V460.8C2727.58 375 2678.38 326.4 2591.38 326.4C2505.58 326.4 2449.78 370.8 2449.78 438.6H2526.58C2526.58 411.6 2547.58 396.6 2586.58 396.6C2619.58 396.6 2637.58 412.2 2637.58 441.6V446.4L2553.58 453C2481.58 458.4 2442.58 492.6 2442.58 547.8C2442.58 606.6 2482.18 643.8 2545.78 643.8ZM2578.18 575.4C2549.98 575.4 2536.78 565.2 2536.78 543.6C2536.78 524.4 2551.18 515.4 2591.38 511.8L2638.18 507.6V523.8C2638.18 558 2613.58 575.4 2578.18 575.4ZM2886.25 636V471.6C2886.25 434.4 2909.65 410.4 2946.25 410.4C2978.05 410.4 2999.05 435 2999.05 472.8V636H3091.45V450.6C3091.45 372 3050.05 326.4 2978.65 326.4C2939.65 326.4 2905.45 341.4 2886.85 367.2L2880.85 336H2793.85V636H2886.25ZM3203.32 289.2C3232.12 289.2 3255.52 265.8 3255.52 236.4C3255.52 207 3232.12 184.2 3203.32 184.2C3173.92 184.2 3150.52 207 3150.52 236.4C3150.52 265.8 3173.92 289.2 3203.32 289.2ZM3157.72 636H3250.12V336H3157.72V636ZM3303.24 484.8C3303.24 580.8 3364.44 643.8 3459.24 643.8C3543.24 643.8 3604.44 592.2 3610.44 516.6H3517.44C3511.44 546 3491.64 561 3459.24 561C3419.64 561 3396.24 532.8 3396.24 484.8C3396.24 438.6 3421.44 409.2 3460.44 409.2C3492.24 409.2 3510.84 423.6 3517.44 453.6H3610.44C3604.44 375 3545.64 326.4 3456.84 326.4C3366.84 326.4 3303.24 392.4 3303.24 484.8ZM3928.43 192H3831.23V636H4103.63V546H3928.43V192ZM4243.83 643.8C4288.83 643.8 4328.43 624 4338.03 596.4L4344.03 636H4425.63V460.8C4425.63 375 4376.43 326.4 4289.43 326.4C4203.63 326.4 4147.83 370.8 4147.83 438.6H4224.63C4224.63 411.6 4245.63 396.6 4284.63 396.6C4317.63 396.6 4335.63 412.2 4335.63 441.6V446.4L4251.63 453C4179.63 458.4 4140.63 492.6 4140.63 547.8C4140.63 606.6 4180.23 643.8 4243.83 643.8ZM4276.23 575.4C4248.03 575.4 4234.83 565.2 4234.83 543.6C4234.83 524.4 4249.23 515.4 4289.43 511.8L4336.23 507.6V523.8C4336.23 558 4311.63 575.4 4276.23 575.4ZM4578.9 636L4583.7 597.6C4599.9 625.2 4635.9 643.8 4677.9 643.8C4763.1 643.8 4822.5 582 4822.5 489C4822.5 391.2 4769.1 325.8 4685.1 325.8C4641.9 325.8 4602.3 343.8 4584.3 370.8V183.6H4491.9V636H4578.9ZM4584.9 484.2C4584.9 439.2 4614.9 409.2 4658.1 409.2C4701.9 409.2 4729.5 439.8 4729.5 484.2C4729.5 528.6 4701.9 559.2 4658.1 559.2C4614.9 559.2 4584.9 529.2 4584.9 484.2ZM4854.09 541.2C4854.09 601.8 4903.89 643.8 4983.09 643.8C5061.09 643.8 5115.69 604.8 5115.69 540.6C5115.69 492.6 5088.69 469.8 5039.49 459L4983.69 447C4962.69 442.2 4951.29 434.4 4951.29 420.6C4951.29 404.4 4964.49 393.6 4985.49 393.6C5007.69 393.6 5020.29 407.4 5020.29 427.8H5107.89C5107.89 367.2 5059.29 326.4 4989.69 326.4C4917.69 326.4 4864.29 362.4 4864.29 424.8C4864.29 477.6 4891.29 501.6 4946.49 513.6L5001.69 525.6C5023.89 530.4 5028.69 540 5028.69 549C5028.69 564.6 5015.49 574.8 4986.69 574.8C4958.49 574.8 4942.89 562.2 4941.69 541.2H4854.09Z" fill="white"/>
<defs>
<linearGradient id="paint0_linear_335_36" x1="475.066" y1="5" x2="475.066" y2="805" gradientUnits="userSpaceOnUse">
<stop stop-color="#FCB930"/>
<stop offset="1" stop-color="#D82909"/>
</linearGradient>
</defs>
</svg>
